<svg xmlns="http://www.w3.org/2000/svg" viewBox="0 0 100 100" fill="none">
  <circle cx="50" cy="50" r="48" stroke="#c9a24b" stroke-width="3" fill="#0e2b1f"/>
  <path d="M50 15 C35 15 22 28 22 45 C22 62 35 75 50 85 C65 75 78 62 78 45 C78 28 65 15 50 15Z" fill="#c9a24b" opacity="0.3"/>
  <path d="M50 25 C40 25 32 33 32 43 C32 53 40 61 50 68 C60 61 68 53 68 43 C68 33 60 25 50 25Z" fill="#c9a24b"/>
  <path d="M50 35 L46 48 H54 L50 35Z" fill="#0e2b1f"/>
  <path d="M42 52 L46 62 H54 L58 52 H42Z" fill="#0e2b1f" opacity="0.8"/>
</svg>
